<svg xmlns="http://www.w3.org/2000/svg" viewBox="0 0 365.98 610.13"><defs><style>.cls-1{fill:#ac8d58;}</style></defs><title>odnoklassniki</title><g id="Layer_2" data-name="Layer 2"><g id="Layer_1-2" data-name="Layer 1"><path class="cls-1" d="M153,429.59a347.24,347.24,0,0,1-45.79-7.6C72,413.81,40.6,398.13,13.8,373.85c-11.16-10.12-17.1-22.67-11.9-38C7,320.62,16.46,309.66,33.35,307.47c9.42-1.22,18.18,1.49,26.2,6.27,14.84,8.84,29.27,18.32,45.49,24.69,36.8,14.45,74.56,18.87,113.66,12.34,31.6-5.28,59.88-18.12,86.17-36.05,14.67-10,32.36-10,44.88-.53,20.08,15.15,21.79,41.18,3.74,58.31-4.34,4.12-8.8,8.17-13.52,11.84-33.42,26.05-72.25,38.09-113.57,43.61-3.73.5-7.45,1.05-11.69,1.65,2.64,4.09,5.75,7,8.74,10Q274,490.47,324.71,541.25c6.19,6.21,11.71,12.83,13.45,21.72,4,20.2-11.42,42-32,46-11.9,2.28-22.29-.76-30.84-8.87-25.27-24-49.47-49-73.94-73.79-4-4-8-8-12.19-11.82s-7.39-3.83-11.38.08c-12.24,12-24.25,24.28-36.38,36.42q-23.15,23.16-46.34,46.26C84.26,608,71.84,613.59,56.65,607.83c-16.1-6.11-26-17.83-28.12-35.06-1.26-10.07,2.23-19.27,9.27-26.48,22.11-22.65,44.52-45,66.81-67.5q22-22.18,44-44.36C149.89,433.15,151,431.75,153,429.59Z"/><path class="cls-1" d="M182.21,308.79C97.5,308.14,29,239,28.93,154.29S98.47,0,183.54,0,337.27,69.75,337.22,156.11C337.17,240,267.54,308.61,182.21,308.79ZM107.73,154.36c-.67,40.88,32.85,75,74.33,75.57,42.22.64,75.7-32.21,76.37-74.93.65-41.52-32.32-75.31-74.23-76.08C142.11,78.17,108.42,111.4,107.73,154.36Z"/></g></g></svg>